<svg xmlns="http://www.w3.org/2000/svg" xmlns:xlink="http://www.w3.org/1999/xlink" width="289.489" height="72.888" viewBox="0 0 289.489 72.888">
  <defs>
    <clipPath id="clip-path">
      <path id="Path_13" data-name="Path 13" d="M28.105.727h15v70.5h-15Zm0,0"/>
    </clipPath>
    <clipPath id="clip-path-2">
      <path id="Path_15" data-name="Path 15" d="M37.57,172.73h70.465v15H37.57Zm0,0"/>
    </clipPath>
    <clipPath id="clip-path-3">
      <path id="Path_22" data-name="Path 22" d="M28.359.727h15v70.5h-15Zm0,0"/>
    </clipPath>
    <clipPath id="clip-path-4">
      <path id="Path_24" data-name="Path 24" d="M1.57,28.473H72.035v15H1.57Zm0,0"/>
    </clipPath>
  </defs>
  <g id="Group_42" data-name="Group 42" transform="translate(-37.57 -157.339)">
    <g id="surface1">
      <g id="Group_22" data-name="Group 22">
        <g id="Group_21" data-name="Group 21" transform="translate(217.868 227.687)">
          <path id="Path_11" data-name="Path 11"/>
        </g>
      </g>
    </g>
    <g id="Group_23" data-name="Group 23">
      <g id="Group_1" data-name="Group 1" transform="translate(118.586 204.733)">
        <path id="Path_1" data-name="Path 1" d="M18.355-32.906C8.27-32.906,1.449-26.2,1.449-16.18,1.449-6.277,8.211.363,18.234.363c6.883,0,12.133-2.777,14.789-7.547l-7.605-4.469a7.118,7.118,0,0,1-6.641,3.684c-4.047,0-6.824-3.262-6.824-8.273,0-4.891,2.777-8.211,6.824-8.211a7.81,7.81,0,0,1,6.582,3.383L32.844-25.6C30.008-30.246,24.813-32.906,18.355-32.906Zm0,0" fill="#fff"/>
      </g>
    </g>
    <g id="Group_24" data-name="Group 24">
      <g id="Group_3" data-name="Group 3" transform="translate(152.516 204.733)">
        <path id="Path_2" data-name="Path 2" d="M19.258-32.906C8.574-32.906,1.449-26.324,1.449-16.3S8.574.363,19.258.363C29.887.363,37.012-6.277,37.012-16.3S29.887-32.906,19.258-32.906Zm0,8.273c4.289,0,7.246,3.441,7.246,8.453,0,5.07-2.957,8.453-7.246,8.453-4.344,0-7.3-3.383-7.3-8.453C11.953-21.191,14.914-24.633,19.258-24.633Zm0,0" fill="#fff"/>
      </g>
    </g>
    <g id="Group_25" data-name="Group 25">
      <g id="Group_5" data-name="Group 5" transform="translate(190.975 204.733)">
        <path id="Path_3" data-name="Path 3" d="M36.949-44.8H26.5v16.543A12.074,12.074,0,0,0,16.48-32.965c-8.992,0-14.973,6.582-14.973,16.543C1.508-6.34,7.547.422,16.723.422A11.78,11.78,0,0,0,26.5-4.285V0H36.949ZM19.258-7.668c-4.344,0-7.242-3.5-7.3-8.512.063-5.012,2.961-8.453,7.3-8.453S26.5-21.191,26.5-16.18,23.605-7.668,19.258-7.668Zm0,0" fill="#fff"/>
      </g>
    </g>
    <g id="Group_26" data-name="Group 26">
      <g id="Group_7" data-name="Group 7" transform="translate(232.392 204.733)">
        <path id="Path_4" data-name="Path 4" d="M9.418-47.395a5.294,5.294,0,0,0-5.492,5.5,5.308,5.308,0,0,0,5.492,5.551,5.311,5.311,0,0,0,5.5-5.551A5.3,5.3,0,0,0,9.418-47.395ZM14.551,0V-32.543H4.164V0Zm0,0" fill="#fff"/>
      </g>
    </g>
    <g id="Group_27" data-name="Group 27">
      <g id="Group_9" data-name="Group 9" transform="translate(251.169 204.733)">
        <path id="Path_5" data-name="Path 5" d="M25.477-33.023c-4.828.059-8.57,1.992-10.867,5.793v-5.312H4.164V0H14.609V-17.207c.426-3.863,2.84-6.582,6.645-6.582,3.5,0,5.734,2.355,5.734,6.16V0H37.371V-20.527C37.371-28.133,32.664-33.023,25.477-33.023Zm0,0" fill="#fff"/>
      </g>
    </g>
    <g id="Group_28" data-name="Group 28">
      <g id="Group_11" data-name="Group 11" transform="translate(291.801 204.733)">
        <path id="Path_6" data-name="Path 6" d="M35.258-32.543H24.875v3.984a11.337,11.337,0,0,0-9.6-4.348c-8.148,0-13.766,6.16-13.766,15.4C1.508-8.031,7.3-1.75,15.516-1.75A11.258,11.258,0,0,0,24.875-6.1v3.441c0,4.043-3.02,6.7-8.031,6.7A18.065,18.065,0,0,1,6.762.785L3.141,7.848a26.346,26.346,0,0,0,14.488,4.289c10.5,0,17.629-5.859,17.629-15.094ZM18.113-9.3c-4.105,0-6.883-3.262-6.883-7.91,0-4.711,2.777-7.969,6.883-7.969,4.043,0,6.762,3.2,6.762,7.969C24.875-12.559,22.156-9.3,18.113-9.3Zm0,0" fill="#fff"/>
      </g>
    </g>
    <g id="Group_29" data-name="Group 29">
      <g id="Group_13" data-name="Group 13" transform="translate(170.293 227.687)">
        <path id="Path_7" data-name="Path 7" d="M9.469,0,12.3-8.453h-1L9.008-1.121,6.691-8.453l-.969.012L3.43-1.121,1.109-8.453H.074L2.9,0h.988L6.2-7.125,8.477,0Zm0,0" fill="#fff"/>
      </g>
    </g>
    <g id="Group_30" data-name="Group 30">
      <g id="Group_15" data-name="Group 15" transform="translate(186.432 227.687)">
        <path id="Path_8" data-name="Path 8" d="M2.246,0V-8.453H1.281V0Zm0,0" fill="#fff"/>
      </g>
    </g>
    <g id="Group_31" data-name="Group 31">
      <g id="Group_17" data-name="Group 17" transform="translate(193.821 227.687)">
        <path id="Path_9" data-name="Path 9" d="M6.617-7.523v-.93H.133v.93H2.887V0h.965V-7.523Zm0,0" fill="#fff"/>
      </g>
    </g>
    <g id="Group_32" data-name="Group 32">
      <g id="Group_19" data-name="Group 19" transform="translate(204.42 227.687)">
        <path id="Path_10" data-name="Path 10" d="M8.309,0V-8.453H7.34v3.816H2.246V-8.453H1.281V0h.965V-3.719H7.34V0Zm0,0" fill="#fff"/>
      </g>
    </g>
    <g id="Group_33" data-name="Group 33">
      <g id="Group_23-2" data-name="Group 23" transform="translate(225.039 227.687)">
        <path id="Path_12" data-name="Path 12" d="M4.758-8.453h-4v.93h3.02v4.965c0,1.051-.52,1.605-1.449,1.605a2.449,2.449,0,0,1-1.848-.98L0-1.16A2.921,2.921,0,0,0,2.344.047,2.29,2.29,0,0,0,4.758-2.535Zm0,0" fill="#fff"/>
      </g>
    </g>
    <g id="Group_34" data-name="Group 34">
      <g id="Group_25-2" data-name="Group 25" transform="translate(234.733 227.687)">
        <path id="Path_13-2" data-name="Path 13" d="M7.016-7.523v-.93H1.281V0H7.172V-.918H2.246v-2.9H6.508v-.93H2.246V-7.523Zm0,0" fill="#fff"/>
      </g>
    </g>
    <g id="Group_35" data-name="Group 35">
      <g id="Group_27-2" data-name="Group 27" transform="translate(246.455 227.687)">
        <path id="Path_14" data-name="Path 14" d="M6.809,0h1.1L5.93-2.875A2.645,2.645,0,0,0,7.824-5.613c0-1.8-1.219-2.84-3.332-2.84H1.281V0h.965V-2.668H4.492c.191,0,.387-.012.566-.023ZM2.246-3.6V-7.523H4.492c1.535,0,2.4.652,2.4,1.934,0,1.316-.867,1.992-2.4,1.992Zm0,0" fill="#fff"/>
      </g>
    </g>
    <g id="Group_36" data-name="Group 36">
      <g id="Group_29-2" data-name="Group 29" transform="translate(259.046 227.687)">
        <path id="Path_15-2" data-name="Path 15" d="M6.809,0h1.1L5.93-2.875A2.645,2.645,0,0,0,7.824-5.613c0-1.8-1.219-2.84-3.332-2.84H1.281V0h.965V-2.668H4.492c.191,0,.387-.012.566-.023ZM2.246-3.6V-7.523H4.492c1.535,0,2.4.652,2.4,1.934,0,1.316-.867,1.992-2.4,1.992Zm0,0" fill="#fff"/>
      </g>
    </g>
    <g id="Group_37" data-name="Group 37">
      <g id="Group_31-2" data-name="Group 31" transform="translate(271.637 227.687)">
        <path id="Path_16" data-name="Path 16" d="M4.273-2.9,7.488-8.453H6.5l-2.7,4.406L1.051-8.453h-1L3.32-2.863V0h.953Zm0,0" fill="#fff"/>
      </g>
    </g>
    <g id="Group_38" data-name="Group 38" transform="translate(51 159)" clip-path="url(#clip-path)">
      <path id="Path_12-2" data-name="Path 12" d="M70.973,71.227H.473V.727h70.5Zm0,0" fill="#fd612a"/>
    </g>
    <g id="Group_39" data-name="Group 39" clip-path="url(#clip-path-2)">
      <path id="Path_14-2" data-name="Path 14" d="M108.035,144.863v70.465H37.57V144.863Zm0,0" fill="#fff"/>
    </g>
    <g id="Group_40" data-name="Group 40" transform="translate(22 159)">
      <g id="Group_36-2" data-name="Group 36" clip-path="url(#clip-path-3)">
        <path id="Path_21" data-name="Path 21" d="M71.227,71.227H.727V.727h70.5Zm0,0" fill="#fd612a"/>
      </g>
    </g>
    <g id="Group_41" data-name="Group 41" transform="translate(36 173)">
      <g id="Group_38-2" data-name="Group 38" clip-path="url(#clip-path-4)">
        <path id="Path_23" data-name="Path 23" d="M72.035.605V71.07H1.57V.605Zm0,0" fill="#fff"/>
      </g>
    </g>
  </g>
</svg>
